<svg width="53" height="53" viewBox="0 0 53 53" fill="none" xmlns="http://www.w3.org/2000/svg">
<g id="&#240;&#159;&#166;&#134; icon &#34;JavaScript (JS) Square&#34;">
<path id="Vector" d="M47.3214 0H5.67857C2.54353 0 0 2.54353 0 5.67857V47.3214C0 50.4565 2.54353 53 5.67857 53H47.3214C50.4565 53 53 50.4565 53 47.3214V5.67857C53 2.54353 50.4565 0 47.3214 0ZM28.8424 41.3353C28.8424 46.4933 25.8138 48.8475 21.4011 48.8475C17.4143 48.8475 15.1074 46.7891 13.9243 44.2929L17.9821 41.844C18.7629 43.2281 19.4728 44.3993 21.1882 44.3993C22.8208 44.3993 23.8618 43.7605 23.8618 41.2643V24.335H28.8424V41.3353ZM40.6254 48.8475C35.9998 48.8475 33.0067 46.6471 31.5516 43.7605L35.6094 41.4181C36.6741 43.1571 38.0701 44.4467 40.519 44.4467C42.5775 44.4467 43.9025 43.4174 43.9025 41.9859C43.9025 40.2824 42.5538 39.679 40.2705 38.6734L39.0283 38.1411C35.4319 36.615 33.054 34.6866 33.054 30.6288C33.054 26.8904 35.9051 24.0511 40.3415 24.0511C43.5121 24.0511 45.7835 25.1513 47.4161 28.0379L43.5357 30.5223C42.6839 28.9962 41.7612 28.3929 40.3297 28.3929C38.8746 28.3929 37.9518 29.3156 37.9518 30.5223C37.9518 32.0129 38.8746 32.6163 41.0159 33.5509L42.258 34.0833C46.4933 35.8933 48.8712 37.7507 48.8712 41.915C48.8712 46.3868 45.3458 48.8475 40.6254 48.8475Z" fill="#F0CA47"/>
</g>
</svg>
