<svg width="61" height="54" viewBox="0 0 61 54" fill="none" xmlns="http://www.w3.org/2000/svg">
<g id="&#240;&#159;&#166;&#134; icon &#34;React&#34;">
<path id="Vector" d="M49.4744 17.1761C48.8355 16.9632 48.1967 16.7621 47.5578 16.5728C47.6643 16.1351 47.759 15.6973 47.8536 15.2596C49.3087 8.20875 48.3505 2.54204 45.1208 0.672848C42.0094 -1.11353 36.9342 0.74383 31.7999 5.21569C31.2912 5.65341 30.7943 6.11479 30.3211 6.57617C30.0017 6.26858 29.6704 5.961 29.3392 5.66524C23.9564 0.885794 18.5618 -1.12536 15.3321 0.75566C12.2325 2.55387 11.3098 7.88934 12.6111 14.5616C12.7412 15.2241 12.8832 15.8748 13.0488 16.5373C12.2917 16.7502 11.5464 16.9868 10.8484 17.2353C4.53101 19.4239 0 22.8783 0 26.4511C0 30.1421 4.82677 33.845 11.3926 36.0928C11.925 36.2702 12.4573 36.4477 13.0015 36.6015C12.8241 37.3113 12.6703 38.0093 12.5283 38.7309C11.2861 45.2968 12.2562 50.5021 15.3557 52.2885C18.5499 54.134 23.9209 52.2412 29.1499 47.6628C29.5639 47.2961 29.978 46.9175 30.3921 46.5153C30.9126 47.024 31.4568 47.509 32.001 47.9823C37.0644 52.3358 42.0686 54.0985 45.1563 52.3121C48.3505 50.4666 49.3915 44.8709 48.0429 38.0566C47.9364 37.5361 47.8181 37.0037 47.688 36.4595C48.0665 36.3531 48.4333 36.2348 48.8 36.1164C55.6261 33.8569 60.5712 30.2013 60.5712 26.4511C60.5712 22.8665 55.91 19.3884 49.4744 17.1761ZM33.4679 7.1322C37.8688 3.29918 41.9739 1.79673 43.8431 2.87329C45.8425 4.02083 46.6114 8.65831 45.3574 14.7509C45.2746 15.1531 45.1918 15.5435 45.0853 15.9339C42.459 15.3424 39.7972 14.9165 37.1235 14.6799C35.5856 12.4795 33.9057 10.3737 32.0838 8.39804C32.5452 7.96032 32.9947 7.54626 33.4679 7.1322ZM19.7803 32.591C20.3836 33.6203 20.9988 34.6495 21.6495 35.6551C19.8039 35.454 17.9702 35.1582 16.1602 34.7678C16.6807 33.0642 17.3314 31.3015 18.0885 29.5033C18.6327 30.5444 19.1888 31.5736 19.7803 32.591ZM16.1957 18.3592C17.8993 17.9806 19.7093 17.673 21.5903 17.4364C20.9633 18.4183 20.3481 19.4239 19.7684 20.4413C19.1888 21.4469 18.6209 22.4761 18.0885 23.5172C17.3432 21.7545 16.7162 20.0272 16.1957 18.3592ZM19.4372 26.5102C20.218 24.8777 21.0698 23.2806 21.9689 21.7071C22.868 20.1337 23.8381 18.6076 24.8555 17.1051C26.63 16.975 28.4401 16.904 30.2856 16.904C32.1311 16.904 33.953 16.975 35.7157 17.1051C36.7213 18.5958 37.6795 20.1219 38.5905 21.6835C39.5014 23.2451 40.3532 24.8422 41.1576 26.4629C40.365 28.0955 39.5132 29.7044 38.6023 31.2897C37.7032 32.8631 36.7449 34.3892 35.7394 35.9035C33.9767 36.0336 32.143 36.0928 30.2856 36.0928C28.4282 36.0928 26.63 36.0336 24.891 35.9272C23.8617 34.4247 22.8916 32.8868 21.9807 31.3133C21.0698 29.7399 20.2298 28.1428 19.4372 26.5102ZM40.8027 32.5674C41.4061 31.5263 41.9739 30.4734 42.53 29.4087C43.2871 31.1241 43.9496 32.8631 44.5293 34.6495C42.6956 35.0636 40.8382 35.383 38.969 35.5959C39.6079 34.6022 40.2112 33.5848 40.8027 32.5674ZM42.5063 23.5172C41.9503 22.4761 41.3824 21.435 40.7909 20.4176C40.2112 19.4121 39.6079 18.4183 38.9809 17.4364C40.8856 17.673 42.7074 17.9924 44.411 18.3828C43.8668 20.1337 43.228 21.8373 42.5063 23.5172ZM30.3093 10.2081C31.5514 11.5567 32.7226 12.9764 33.811 14.4433C31.4686 14.3369 29.1144 14.3369 26.772 14.4433C27.9314 12.9172 29.1262 11.4976 30.3093 10.2081ZM16.5861 2.9561C18.5736 1.79673 22.9863 3.45297 27.6356 7.56992C27.9314 7.83018 28.2271 8.11411 28.5347 8.39804C26.701 10.3737 25.0093 12.4795 23.4595 14.6799C20.7859 14.9165 18.1359 15.3306 15.5095 15.9103C15.3557 15.3069 15.2256 14.6918 15.0955 14.0766C13.9834 8.35072 14.7169 4.03266 16.5861 2.9561ZM13.6877 34.1408C13.1908 33.9988 12.7058 33.845 12.2207 33.6794C9.70085 32.8868 6.83792 31.6328 4.76761 29.9884C3.57275 29.1602 2.76829 27.8826 2.54352 26.4511C2.54352 24.2861 6.28189 21.5179 11.6765 19.6368C12.3508 19.4002 13.037 19.1873 13.7232 18.9862C14.5276 21.5533 15.4977 24.0732 16.6216 26.5102C15.4859 28.9828 14.504 31.5381 13.6877 34.1408ZM27.4818 45.7345C25.5298 47.5209 23.2702 48.9405 20.8095 49.9106C19.4963 50.5376 17.9821 50.5967 16.6334 50.0644C14.7524 48.976 13.9716 44.7999 15.0363 39.1805C15.1665 38.518 15.3084 37.8555 15.474 37.2048C18.124 37.7727 20.7977 38.1631 23.5068 38.3642C25.0684 40.5765 26.7838 42.6941 28.6175 44.6816C28.2389 45.0483 27.8604 45.4032 27.4818 45.7345ZM30.3802 42.8597C29.1735 41.5584 27.9669 40.1151 26.7957 38.5653C27.9314 38.6126 29.1026 38.6363 30.2856 38.6363C31.5041 38.6363 32.699 38.6126 33.882 38.5535C32.7936 40.0559 31.6224 41.4874 30.3802 42.8597ZM45.8425 46.4088C45.736 47.8521 45.0262 49.2008 43.8904 50.1117C42.0094 51.2001 37.999 49.7805 33.6691 46.0657C33.1722 45.6398 32.6753 45.1785 32.1666 44.7053C33.9766 42.7059 35.6447 40.5883 37.159 38.3642C39.8681 38.1394 42.5655 37.7254 45.2273 37.122C45.3456 37.6071 45.4521 38.0921 45.5467 38.5653C46.1264 41.1207 46.221 43.7825 45.8425 46.4088ZM47.9956 33.6912C47.6643 33.7977 47.3331 33.9042 46.99 33.9988C46.1619 31.4198 45.1445 28.9 43.9733 26.4511C45.109 24.0377 46.0672 21.5533 46.8717 19.0098C47.4869 19.1873 48.0784 19.3766 48.6462 19.5658C54.1592 21.4587 58.0277 24.2743 58.0277 26.4274C58.0277 28.7462 53.8989 31.7392 47.9956 33.6912ZM30.2856 31.9167C33.2787 31.9167 35.7039 29.4915 35.7039 26.4984C35.7039 23.5053 33.2787 21.0801 30.2856 21.0801C27.2925 21.0801 24.8673 23.5053 24.8673 26.4984C24.8673 29.4915 27.2925 31.9167 30.2856 31.9167Z" fill="#7DDFFF"/>
</g>
</svg>
