<svg width="100" height="100" viewBox="0 0 100 100" fill="none" xmlns="http://www.w3.org/2000/svg">
<rect x="0.5" y="99.5" width="99" height="99" rx="24.5" transform="rotate(-90 0.5 99.5)" stroke="url(#paint0_linear_159_3075)"/>
<rect x="1" y="99" width="98" height="98" rx="24" transform="rotate(-90 1 99)" stroke="url(#paint1_linear_159_3075)" stroke-width="2"/>
<path d="M24 19L28.7675 73.0684L50.2283 80.1992L71.689 73.0684L76.4565 19H24ZM66.7712 29.9284L66.1155 36.3899L50.3649 43.1245L50.3239 43.1382H65.5554L63.8068 63.1645L50.3922 67.0851L36.8956 63.0962L36.0213 53.0011H42.7013L43.1384 58.2331L50.3239 60.0499L57.7962 57.9462L58.3016 49.5313L35.5841 49.463V49.4494L35.5568 49.463L35.065 43.1382L50.3785 36.7587L51.2665 36.3899H34.4776L33.6853 29.9284H66.7712Z" fill="#3595CE"/>
<defs>
<linearGradient id="paint0_linear_159_3075" x1="-34" y1="88" x2="50" y2="200" gradientUnits="userSpaceOnUse">
<stop stop-color="#6F0202"/>
<stop offset="1" stop-color="#BC1313" stop-opacity="0"/>
</linearGradient>
<linearGradient id="paint1_linear_159_3075" x1="50" y1="100" x2="50" y2="200" gradientUnits="userSpaceOnUse">
<stop stop-color="#A00B0B"/>
<stop offset="1" stop-color="#0BA0A0" stop-opacity="0"/>
</linearGradient>
</defs>
</svg>
