<svg width="66" height="62" viewBox="0 0 66 62" fill="none" xmlns="http://www.w3.org/2000/svg">
<g id="digitalart">
<path id="Vector" d="M46.2446 2H5.54935C2.48565 2 0 4.48565 0 7.54935V55.6437C0 58.7074 2.48565 61.1931 5.54935 61.1931H46.2446C49.3083 61.1931 51.7939 58.7074 51.7939 55.6437V7.54935C51.7939 4.48565 49.3083 2 46.2446 2ZM25.897 57.4935C23.8506 57.4935 22.1974 55.8402 22.1974 53.7939C22.1974 51.7476 23.8506 50.0944 25.897 50.0944C27.9433 50.0944 29.5965 51.7476 29.5965 53.7939C29.5965 55.8402 27.9433 57.4935 25.897 57.4935Z" fill="url(#paint0_linear_255_4887)"/>
<path id="Vector_2" d="M55.2087 5.2028L55.2087 5.2028L42.0883 14.9387L41.9475 15.0432L41.9028 15.2128L40.6851 19.8327C40.6851 19.8327 40.6851 19.8327 40.6851 19.8328C40.4405 20.7604 41.1192 21.676 42.078 21.7113C42.0781 21.7113 42.0781 21.7113 42.0781 21.7113L46.8488 21.8881L47.0242 21.8946L47.1652 21.7899L60.29 12.0501L60.29 12.0501L64.0283 9.27631L64.0284 9.27621C65.1353 8.45435 65.3669 6.89107 64.5453 5.78401L62.4393 2.94603C61.6178 1.83904 60.054 1.60752 58.947 2.429C58.947 2.42901 58.947 2.42901 58.947 2.42902L55.2087 5.2028Z" fill="white" stroke="url(#paint1_linear_255_4887)"/>
<path id="Vector 5" d="M12.19 18.0581C13.4981 15.7704 15.1035 13.6416 16.5179 11.4191C16.7772 11.0116 17.051 10.6066 17.3024 10.1957C17.3438 10.128 17.4587 9.80315 17.4518 10.0688C17.4449 10.3358 17.3104 10.6232 17.2193 10.8682C16.9733 11.5298 16.7715 12.2062 16.5238 12.8677C15.4229 15.8079 14.3707 18.7658 13.2423 21.6956C12.8329 22.7586 12.4753 23.8417 12.1028 24.9181C11.9382 25.3938 11.756 25.899 11.6715 26.3974C11.6328 26.6261 11.4432 26.9168 11.7898 26.8384C12.0992 26.7683 12.409 26.5304 12.6691 26.3654C13.5684 25.7951 14.4206 25.1419 15.2526 24.4787C17.9057 22.3636 20.4192 20.0936 23.0179 17.9158C24.6594 16.5401 26.397 15.0988 27.5721 13.2767C27.9424 12.7026 28.4067 11.9415 28.4897 11.2553C28.5222 10.9861 28.5354 11.2422 28.3488 11.427C27.758 12.0122 27.2749 12.9433 26.9141 13.678C26.2772 14.975 25.5571 16.2688 25.04 17.6208C24.8002 18.2479 24.483 18.9131 24.3738 19.58C24.3403 19.7846 24.3189 21.2876 24.5125 21.3228C25.0133 21.4139 25.65 21.1433 26.0751 20.9153C27.2425 20.2892 28.0548 19.2201 28.9183 18.2513C29.2553 17.8732 29.5483 17.465 29.8693 17.0737C29.9623 16.9604 30.0811 16.7416 30.2156 16.67C30.3591 16.5937 30.0759 17.3136 30.063 17.3536C29.9354 17.7496 29.8803 18.1743 29.7896 18.5806C29.749 18.7622 29.3448 19.9639 29.6025 20.1355C29.7288 20.2196 30.2 20.0986 30.3353 20.0715C31.0195 19.9342 31.5328 19.2507 31.93 18.7266C32.9126 17.4297 33.6962 15.9886 34.5555 14.6141C34.7355 14.3263 35.2447 13.9437 34.8427 14.4944C34.3409 15.1819 34.0558 16.1482 33.7547 16.9354C33.5798 17.3927 33.4397 17.9864 33.3999 18.4736C33.3499 19.0855 33.4279 19.6835 33.4879 20.2919C33.5312 20.7301 33.5077 20.8931 33.8568 21.1691C35.6031 22.5494 37.4599 19.772 38.4119 18.685" stroke="white" stroke-linecap="round"/>
<path id="Vector 6" d="M11.8815 35.0721C11.8815 34.7924 12.1619 34.4674 12.3217 34.2584C13.0392 33.3201 13.9629 32.5539 14.7042 31.6323C15.4943 30.65 16.5409 29.8541 17.2682 28.8287C17.5162 28.4791 17.8359 28.1506 18.0521 27.7837C18.1686 27.5858 17.9413 28.2092 17.8976 28.285C16.9776 29.8793 16.6071 31.8723 16.075 33.6221C15.043 37.0156 14.3254 40.5113 13.0322 43.8221C12.3773 45.4987 11.5097 47.4283 10.1246 48.6579C9.94779 48.8148 9.31257 49.1581 9.0704 48.9163C8.84974 48.6959 9.20925 48.1447 9.30981 47.983C9.74857 47.2777 10.1008 46.5102 10.4914 45.7772C10.9031 45.0045 11.404 44.2817 11.812 43.5097C12.5502 42.113 13.6988 40.8841 14.7776 39.7421C16.252 38.1812 17.7148 36.6281 18.7703 34.7559C19.5186 33.4285 20.295 32.1177 21.1103 30.8302C21.584 30.0821 22.0001 29.2889 22.4927 28.555C22.5906 28.4091 22.7748 27.878 22.9329 27.7991C23.0428 27.7442 22.9994 28.0053 22.9869 28.0459C22.9453 28.181 22.849 28.2678 22.7784 28.3853C22.3164 29.1543 21.9778 30.0028 21.5505 30.7916C20.843 32.0977 20.1037 33.5618 19.7356 35.0104C19.6033 35.5313 19.8908 35.4886 20.3728 35.4886C21.9748 35.4886 23.0883 34.3531 24.1376 33.2365C24.7389 32.5967 25.1965 31.8905 25.5586 31.1155C25.9018 30.3812 24.926 32.6121 24.7014 33.3908C24.595 33.7597 24.5133 34.134 24.4311 34.5091C24.343 34.9116 24.4592 34.8539 24.7362 34.5862C26.9275 32.4684 28.9413 30.1287 30.6905 27.6333C31.0474 27.1241 31.3741 26.6188 31.652 26.0638C31.7716 25.8249 31.8406 25.9594 31.8257 26.1602C31.7637 26.9959 31.2605 27.8637 30.9569 28.6244C29.986 31.0567 29.0182 33.499 28.1844 35.9822C27.9226 36.762 27.7087 37.5501 27.5202 38.35C27.5087 38.3991 27.3066 39.0672 27.3272 39.0672C27.3903 39.0672 27.898 38.2933 27.9218 38.2651C28.6617 37.3915 29.4694 36.5766 30.2619 35.7508C30.6993 35.2949 31.1354 34.827 31.6172 34.4165C31.7988 34.2618 32.028 33.9413 32.2775 33.8959C32.5714 33.8426 32.5246 35.2991 32.5246 35.423C32.5246 35.792 32.5246 36.1609 32.5246 36.5298C32.5246 36.7139 32.4287 37.1944 32.5401 37.3473C32.833 37.7496 34.2505 36.7049 34.4416 36.5298C34.7317 36.2639 35.4183 35.423 35.8068 34.7945C36.6046 32.6876 37.5 24.5 40.5 22" stroke="white" stroke-linecap="round"/>
</g>
<defs>
<linearGradient id="paint0_linear_255_4887" x1="25.897" y1="2" x2="25.897" y2="61.1931" gradientUnits="userSpaceOnUse">
<stop stop-color="#3D1F7E"/>
<stop offset="1" stop-color="#B337C7"/>
</linearGradient>
<linearGradient id="paint1_linear_255_4887" x1="54.6455" y1="1.55863" x2="51.5283" y2="22.6143" gradientUnits="userSpaceOnUse">
<stop stop-color="#3D1F7E"/>
<stop offset="1" stop-color="#B337C7"/>
</linearGradient>
</defs>
</svg>
