<svg width="100" height="100" viewBox="0 0 100 100" fill="none" xmlns="http://www.w3.org/2000/svg">
<rect x="0.5" y="99.5" width="99" height="99" rx="24.5" transform="rotate(-90 0.5 99.5)" stroke="url(#paint0_linear_159_3049)"/>
<rect x="1" y="99" width="98" height="98" rx="24" transform="rotate(-90 1 99)" stroke="url(#paint1_linear_159_3049)" stroke-width="2"/>
<path d="M68.2446 21H27.5493C24.4856 21 22 23.4856 22 26.5493V74.6437C22 77.7074 24.4856 80.1931 27.5493 80.1931H68.2446C71.3083 80.1931 73.7939 77.7074 73.7939 74.6437V26.5493C73.7939 23.4856 71.3083 21 68.2446 21ZM47.897 76.4935C45.8506 76.4935 44.1974 74.8402 44.1974 72.7939C44.1974 70.7476 45.8506 69.0944 47.897 69.0944C49.9433 69.0944 51.5965 70.7476 51.5965 72.7939C51.5965 74.8402 49.9433 76.4935 47.897 76.4935Z" fill="url(#paint2_linear_159_3049)"/>
<path d="M77.2087 24.2028L76.8072 24.5008L64.0883 33.9387L63.9475 34.0432L63.9028 34.2128L62.6851 38.8327C62.6851 38.8327 62.6851 38.8327 62.6851 38.8328C62.4405 39.7604 63.1192 40.676 64.078 40.7113C64.0781 40.7113 64.0781 40.7113 64.0782 40.7113L68.8488 40.8881L69.0242 40.8946L69.1652 40.7899L82.29 31.0501L82.29 31.0501L82.2986 31.0437L86.0283 28.2763L86.0284 28.2762C87.1353 27.4543 87.3669 25.8911 86.5453 24.784L84.4393 21.946C83.6178 20.839 82.054 20.6075 80.947 21.429C80.947 21.429 80.947 21.429 80.947 21.429L77.6102 23.9049L77.2087 24.2028L77.2087 24.2028Z" fill="white" stroke="url(#paint3_linear_159_3049)"/>
<path d="M34.19 37.0581C35.4981 34.7704 37.1035 32.6416 38.5179 30.4191C38.7772 30.0116 39.051 29.6066 39.3024 29.1957C39.3438 29.128 39.4587 28.8032 39.4518 29.0688C39.4449 29.3358 39.3104 29.6232 39.2193 29.8682C38.9733 30.5298 38.7715 31.2062 38.5238 31.8677C37.4229 34.8079 36.3707 37.7658 35.2423 40.6956C34.8329 41.7586 34.4753 42.8417 34.1028 43.9181C33.9382 44.3938 33.756 44.899 33.6715 45.3974C33.6328 45.6261 33.4432 45.9168 33.7898 45.8384C34.0992 45.7683 34.409 45.5304 34.6691 45.3654C35.5684 44.7951 36.4206 44.1419 37.2526 43.4787C39.9057 41.3636 42.4192 39.0936 45.0179 36.9158C46.6594 35.5401 48.397 34.0988 49.5721 32.2767C49.9424 31.7026 50.4067 30.9415 50.4897 30.2553C50.5222 29.9861 50.5354 30.2422 50.3488 30.427C49.758 31.0122 49.2749 31.9433 48.9141 32.678C48.2772 33.975 47.5571 35.2688 47.04 36.6208C46.8002 37.2479 46.483 37.9131 46.3738 38.58C46.3403 38.7846 46.3189 40.2876 46.5125 40.3228C47.0133 40.4139 47.65 40.1433 48.0751 39.9153C49.2425 39.2892 50.0548 38.2201 50.9183 37.2513C51.2553 36.8732 51.5483 36.465 51.8693 36.0737C51.9623 35.9604 52.0811 35.7416 52.2156 35.67C52.3591 35.5937 52.0759 36.3136 52.063 36.3536C51.9354 36.7496 51.8803 37.1743 51.7896 37.5806C51.749 37.7622 51.3448 38.9639 51.6025 39.1355C51.7288 39.2196 52.2 39.0986 52.3353 39.0715C53.0195 38.9342 53.5328 38.2507 53.93 37.7266C54.9126 36.4297 55.6962 34.9886 56.5555 33.6141C56.7355 33.3263 57.2447 32.9437 56.8427 33.4944C56.3409 34.1819 56.0558 35.1482 55.7547 35.9354C55.5798 36.3927 55.4397 36.9864 55.3999 37.4736C55.3499 38.0855 55.4279 38.6835 55.4879 39.2919C55.5312 39.7301 55.5077 39.8931 55.8568 40.1691C57.6031 41.5494 59.4599 38.772 60.4119 37.685" stroke="white" stroke-linecap="round"/>
<path d="M33.8815 54.0721C33.8815 53.7924 34.1619 53.4674 34.3217 53.2584C35.0392 52.3201 35.9629 51.5539 36.7042 50.6323C37.4943 49.65 38.5409 48.8541 39.2682 47.8287C39.5162 47.4791 39.8359 47.1506 40.0521 46.7837C40.1686 46.5858 39.9413 47.2092 39.8976 47.285C38.9776 48.8793 38.6071 50.8723 38.075 52.6221C37.043 56.0156 36.3254 59.5113 35.0322 62.8221C34.3773 64.4987 33.5097 66.4283 32.1246 67.6579C31.9478 67.8148 31.3126 68.1581 31.0704 67.9163C30.8497 67.6959 31.2093 67.1447 31.3098 66.983C31.7486 66.2777 32.1008 65.5102 32.4914 64.7772C32.9031 64.0045 33.404 63.2817 33.812 62.5097C34.5502 61.113 35.6988 59.8841 36.7776 58.7421C38.252 57.1812 39.7148 55.6281 40.7703 53.7559C41.5186 52.4285 42.295 51.1177 43.1103 49.8302C43.584 49.0821 44.0001 48.2889 44.4927 47.555C44.5906 47.4091 44.7748 46.878 44.9329 46.7991C45.0428 46.7442 44.9994 47.0053 44.9869 47.0459C44.9453 47.181 44.849 47.2678 44.7784 47.3853C44.3164 48.1543 43.9778 49.0028 43.5505 49.7916C42.843 51.0977 42.1037 52.5618 41.7356 54.0104C41.6033 54.5313 41.8908 54.4886 42.3728 54.4886C43.9748 54.4886 45.0883 53.3531 46.1376 52.2365C46.7389 51.5967 47.1965 50.8905 47.5586 50.1155C47.9018 49.3812 46.926 51.6121 46.7014 52.3908C46.595 52.7597 46.5133 53.134 46.4311 53.5091C46.343 53.9116 46.4592 53.8539 46.7362 53.5862C48.9275 51.4684 50.9413 49.1287 52.6905 46.6333C53.0474 46.1241 53.3741 45.6188 53.652 45.0638C53.7716 44.8249 53.8406 44.9594 53.8257 45.1602C53.7637 45.9959 53.2605 46.8637 52.9569 47.6244C51.986 50.0567 51.0182 52.499 50.1844 54.9822C49.9226 55.762 49.7087 56.5501 49.5202 57.35C49.5087 57.3991 49.3066 58.0672 49.3272 58.0672C49.3903 58.0672 49.898 57.2933 49.9218 57.2651C50.6617 56.3915 51.4694 55.5766 52.2619 54.7508C52.6993 54.2949 53.1354 53.827 53.6172 53.4165C53.7988 53.2618 54.028 52.9413 54.2775 52.8959C54.5714 52.8426 54.5246 54.2991 54.5246 54.423C54.5246 54.792 54.5246 55.1609 54.5246 55.5298C54.5246 55.7139 54.4287 56.1944 54.5401 56.3473C54.833 56.7496 56.2505 55.7049 56.4416 55.5298C56.7317 55.2639 57.4183 54.423 57.8068 53.7945C58.6046 51.6876 59.5 43.5 62.5 41" stroke="white" stroke-linecap="round"/>
<defs>
<linearGradient id="paint0_linear_159_3049" x1="-34" y1="88" x2="50" y2="200" gradientUnits="userSpaceOnUse">
<stop stop-color="#6F0202"/>
<stop offset="1" stop-color="#BC1313" stop-opacity="0"/>
</linearGradient>
<linearGradient id="paint1_linear_159_3049" x1="50" y1="100" x2="50" y2="200" gradientUnits="userSpaceOnUse">
<stop stop-color="#A00B0B"/>
<stop offset="1" stop-color="#0BA0A0" stop-opacity="0"/>
</linearGradient>
<linearGradient id="paint2_linear_159_3049" x1="47.897" y1="21" x2="47.897" y2="80.1931" gradientUnits="userSpaceOnUse">
<stop stop-color="#3D1F7E"/>
<stop offset="1" stop-color="#B337C7"/>
</linearGradient>
<linearGradient id="paint3_linear_159_3049" x1="76.6455" y1="20.5586" x2="73.5283" y2="41.6143" gradientUnits="userSpaceOnUse">
<stop stop-color="#3D1F7E"/>
<stop offset="1" stop-color="#B337C7"/>
</linearGradient>
</defs>
</svg>
