<svg width="100" height="100" viewBox="0 0 100 100" fill="none" xmlns="http://www.w3.org/2000/svg">
<rect x="0.5" y="99.5" width="99" height="99" rx="24.5" transform="rotate(-90 0.5 99.5)" stroke="url(#paint0_linear_159_3061)"/>
<rect x="1" y="99" width="98" height="98" rx="24" transform="rotate(-90 1 99)" stroke="url(#paint1_linear_159_3061)" stroke-width="2"/>
<path d="M24 19L28.765 73.0397L50.146 80.1667L71.6636 73.0397L76.4286 19H24ZM66.0794 36.4625H40.9847L41.5445 43.2073H65.5196L63.6628 63.4687L50.2962 67.1551V67.1961H50.146L36.6702 63.4687L35.851 53.1195H42.3637L42.8415 58.3214L50.146 60.3012L57.4778 58.3214L58.297 49.8291H35.5097L33.7621 29.9499H66.6801L66.0794 36.4625Z" fill="#DC4A25"/>
<defs>
<linearGradient id="paint0_linear_159_3061" x1="-34" y1="88" x2="50" y2="200" gradientUnits="userSpaceOnUse">
<stop stop-color="#6F0202"/>
<stop offset="1" stop-color="#BC1313" stop-opacity="0"/>
</linearGradient>
<linearGradient id="paint1_linear_159_3061" x1="50" y1="100" x2="50" y2="200" gradientUnits="userSpaceOnUse">
<stop stop-color="#A00B0B"/>
<stop offset="1" stop-color="#0BA0A0" stop-opacity="0"/>
</linearGradient>
</defs>
</svg>
