<svg width="100" height="100" viewBox="0 0 100 100" fill="none" xmlns="http://www.w3.org/2000/svg">
<rect x="0.5" y="99.5" width="99" height="99" rx="24.5" transform="rotate(-90 0.5 99.5)" stroke="url(#paint0_linear_159_3057)"/>
<rect x="1" y="99" width="98" height="98" rx="24" transform="rotate(-90 1 99)" stroke="url(#paint1_linear_159_3057)" stroke-width="2"/>
<path d="M71.3214 23H29.6786C26.5435 23 24 25.5435 24 28.6786V70.3214C24 73.4565 26.5435 76 29.6786 76H71.3214C74.4565 76 77 73.4565 77 70.3214V28.6786C77 25.5435 74.4565 23 71.3214 23ZM52.8424 64.3353C52.8424 69.4933 49.8138 71.8475 45.4011 71.8475C41.4143 71.8475 39.1074 69.7891 37.9243 67.2929L41.9821 64.844C42.7629 66.2281 43.4728 67.3993 45.1882 67.3993C46.8208 67.3993 47.8618 66.7605 47.8618 64.2643V47.335H52.8424V64.3353ZM64.6254 71.8475C59.9998 71.8475 57.0067 69.6471 55.5516 66.7605L59.6094 64.4181C60.6741 66.1571 62.0701 67.4467 64.519 67.4467C66.5775 67.4467 67.9025 66.4174 67.9025 64.9859C67.9025 63.2824 66.5538 62.679 64.2705 61.6734L63.0283 61.1411C59.4319 59.615 57.054 57.6866 57.054 53.6288C57.054 49.8904 59.9051 47.0511 64.3415 47.0511C67.5121 47.0511 69.7835 48.1513 71.4161 51.0379L67.5357 53.5223C66.6839 51.9962 65.7612 51.3929 64.3297 51.3929C62.8746 51.3929 61.9518 52.3156 61.9518 53.5223C61.9518 55.0129 62.8746 55.6163 65.0159 56.5509L66.258 57.0833C70.4933 58.8933 72.8712 60.7507 72.8712 64.915C72.8712 69.3868 69.3458 71.8475 64.6254 71.8475Z" fill="#F0CA47"/>
<defs>
<linearGradient id="paint0_linear_159_3057" x1="-34" y1="88" x2="50" y2="200" gradientUnits="userSpaceOnUse">
<stop stop-color="#6F0202"/>
<stop offset="1" stop-color="#BC1313" stop-opacity="0"/>
</linearGradient>
<linearGradient id="paint1_linear_159_3057" x1="50" y1="100" x2="50" y2="200" gradientUnits="userSpaceOnUse">
<stop stop-color="#A00B0B"/>
<stop offset="1" stop-color="#0BA0A0" stop-opacity="0"/>
</linearGradient>
</defs>
</svg>
