<svg width="100" height="100" viewBox="0 0 100 100" fill="none" xmlns="http://www.w3.org/2000/svg">
<rect x="0.5" y="99.5" width="99" height="99" rx="24.5" transform="rotate(-90 0.5 99.5)" stroke="url(#paint0_linear_159_3071)"/>
<rect x="1" y="99" width="98" height="98" rx="24" transform="rotate(-90 1 99)" stroke="url(#paint1_linear_159_3071)" stroke-width="2"/>
<path d="M69.4744 40.1761C68.8355 39.9632 68.1967 39.7621 67.5578 39.5728C67.6643 39.1351 67.759 38.6973 67.8536 38.2596C69.3087 31.2088 68.3505 25.542 65.1208 23.6728C62.0094 21.8865 56.9342 23.7438 51.7999 28.2157C51.2912 28.6534 50.7943 29.1148 50.3211 29.5762C50.0017 29.2686 49.6704 28.961 49.3392 28.6652C43.9564 23.8858 38.5618 21.8746 35.3321 23.7557C32.2325 25.5539 31.3098 30.8893 32.6111 37.5616C32.7412 38.2241 32.8832 38.8748 33.0488 39.5373C32.2917 39.7502 31.5464 39.9868 30.8484 40.2353C24.531 42.4239 20 45.8783 20 49.4511C20 53.1421 24.8268 56.845 31.3926 59.0928C31.925 59.2702 32.4573 59.4477 33.0015 59.6015C32.8241 60.3113 32.6703 61.0093 32.5283 61.7309C31.2861 68.2968 32.2562 73.5021 35.3557 75.2885C38.5499 77.134 43.9209 75.2412 49.1499 70.6628C49.5639 70.2961 49.978 69.9175 50.3921 69.5153C50.9126 70.024 51.4568 70.509 52.001 70.9823C57.0644 75.3358 62.0686 77.0985 65.1563 75.3121C68.3505 73.4666 69.3915 67.8709 68.0429 61.0566C67.9364 60.5361 67.8181 60.0037 67.688 59.4595C68.0666 59.3531 68.4333 59.2348 68.8 59.1165C75.6261 56.8569 80.5712 53.2013 80.5712 49.4511C80.5712 45.8665 75.91 42.3884 69.4744 40.1761ZM53.4679 30.1322C57.8688 26.2992 61.9739 24.7967 63.8431 25.8733C65.8424 27.0208 66.6114 31.6583 65.3574 37.7509C65.2746 38.1531 65.1918 38.5435 65.0853 38.9339C62.459 38.3424 59.7972 37.9165 57.1235 37.6799C55.5856 35.4795 53.9057 33.3737 52.0838 31.398C52.5452 30.9603 52.9947 30.5463 53.4679 30.1322ZM39.7803 55.591C40.3836 56.6203 40.9988 57.6495 41.6495 58.6551C39.8039 58.454 37.9702 58.1582 36.1602 57.7678C36.6807 56.0642 37.3314 54.3015 38.0885 52.5033C38.6327 53.5444 39.1888 54.5736 39.7803 55.591ZM36.1957 41.3592C37.8993 40.9806 39.7093 40.673 41.5903 40.4364C40.9633 41.4183 40.3481 42.4239 39.7684 43.4413C39.1888 44.4469 38.6209 45.4761 38.0885 46.5172C37.3432 44.7545 36.7162 43.0272 36.1957 41.3592ZM39.4372 49.5102C40.218 47.8777 41.0698 46.2806 41.9689 44.7071C42.868 43.1337 43.8381 41.6076 44.8555 40.1051C46.63 39.975 48.4401 39.904 50.2856 39.904C52.1311 39.904 53.953 39.975 55.7157 40.1051C56.7213 41.5958 57.6795 43.1219 58.5905 44.6835C59.5014 46.2451 60.3532 47.8422 61.1576 49.4629C60.365 51.0955 59.5132 52.7044 58.6023 54.2897C57.7032 55.8631 56.7449 57.3892 55.7394 58.9035C53.9767 59.0336 52.143 59.0928 50.2856 59.0928C48.4282 59.0928 46.63 59.0336 44.891 58.9272C43.8617 57.4247 42.8916 55.8868 41.9807 54.3133C41.0698 52.7399 40.2298 51.1428 39.4372 49.5102ZM60.8027 55.5674C61.4061 54.5263 61.9739 53.4734 62.53 52.4087C63.2871 54.1241 63.9496 55.8631 64.5293 57.6495C62.6956 58.0636 60.8382 58.383 58.969 58.5959C59.6079 57.6022 60.2112 56.5848 60.8027 55.5674ZM62.5063 46.5172C61.9503 45.4761 61.3824 44.435 60.7909 43.4176C60.2112 42.4121 59.6079 41.4183 58.9809 40.4364C60.8856 40.673 62.7074 40.9924 64.411 41.3828C63.8668 43.1337 63.228 44.8373 62.5063 46.5172ZM50.3093 33.2081C51.5514 34.5567 52.7226 35.9764 53.811 37.4433C51.4686 37.3369 49.1144 37.3369 46.772 37.4433C47.9314 35.9172 49.1262 34.4976 50.3093 33.2081ZM36.5861 25.9561C38.5736 24.7967 42.9863 26.453 47.6356 30.5699C47.9314 30.8302 48.2271 31.1141 48.5347 31.398C46.701 33.3737 45.0093 35.4795 43.4595 37.6799C40.7859 37.9165 38.1359 38.3306 35.5095 38.9103C35.3557 38.3069 35.2256 37.6918 35.0955 37.0766C33.9834 31.3507 34.7169 27.0327 36.5861 25.9561ZM33.6877 57.1408C33.1908 56.9988 32.7058 56.845 32.2207 56.6794C29.7009 55.8868 26.8379 54.6328 24.7676 52.9884C23.5728 52.1602 22.7683 50.8826 22.5435 49.4511C22.5435 47.2861 26.2819 44.5179 31.6765 42.6368C32.3508 42.4002 33.037 42.1873 33.7232 41.9862C34.5276 44.5533 35.4977 47.0732 36.6216 49.5102C35.4859 51.9828 34.504 54.5381 33.6877 57.1408ZM47.4818 68.7345C45.5298 70.5209 43.2702 71.9405 40.8095 72.9106C39.4963 73.5376 37.9821 73.5967 36.6334 73.0644C34.7524 71.976 33.9716 67.7999 35.0363 62.1805C35.1665 61.518 35.3084 60.8555 35.474 60.2048C38.124 60.7727 40.7977 61.1631 43.5068 61.3642C45.0684 63.5765 46.7838 65.6941 48.6175 67.6816C48.2389 68.0483 47.8604 68.4032 47.4818 68.7345ZM50.3802 65.8597C49.1735 64.5584 47.9669 63.1151 46.7957 61.5653C47.9314 61.6126 49.1026 61.6363 50.2856 61.6363C51.5041 61.6363 52.699 61.6126 53.882 61.5535C52.7936 63.0559 51.6224 64.4874 50.3802 65.8597ZM65.8424 69.4088C65.736 70.8521 65.0262 72.2008 63.8904 73.1117C62.0094 74.2001 57.999 72.7805 53.6691 69.0657C53.1722 68.6398 52.6753 68.1785 52.1666 67.7053C53.9767 65.7059 55.6447 63.5883 57.159 61.3642C59.8681 61.1394 62.5655 60.7254 65.2273 60.122C65.3456 60.6071 65.452 61.0921 65.5467 61.5653C66.1264 64.1207 66.221 66.7825 65.8424 69.4088ZM67.9956 56.6912C67.6643 56.7977 67.3331 56.9042 66.99 56.9988C66.1619 54.4198 65.1445 51.9 63.9733 49.4511C65.109 47.0377 66.0672 44.5533 66.8717 42.0098C67.4869 42.1873 68.0784 42.3766 68.6462 42.5658C74.1592 44.4587 78.0277 47.2743 78.0277 49.4274C78.0277 51.7462 73.8989 54.7392 67.9956 56.6912ZM50.2856 54.9167C53.2787 54.9167 55.7039 52.4915 55.7039 49.4984C55.7039 46.5053 53.2787 44.0801 50.2856 44.0801C47.2925 44.0801 44.8673 46.5053 44.8673 49.4984C44.8673 52.4915 47.2925 54.9167 50.2856 54.9167Z" fill="#7DDFFF"/>
<defs>
<linearGradient id="paint0_linear_159_3071" x1="-34" y1="88" x2="50" y2="200" gradientUnits="userSpaceOnUse">
<stop stop-color="#6F0202"/>
<stop offset="1" stop-color="#BC1313" stop-opacity="0"/>
</linearGradient>
<linearGradient id="paint1_linear_159_3071" x1="50" y1="100" x2="50" y2="200" gradientUnits="userSpaceOnUse">
<stop stop-color="#A00B0B"/>
<stop offset="1" stop-color="#0BA0A0" stop-opacity="0"/>
</linearGradient>
</defs>
</svg>
